<?xml version="1.0" encoding="UTF-8"?>
<svg width="50px" height="58px" viewBox="0 0 50 58" version="1.1" xmlns="http://www.w3.org/2000/svg" xmlns:xlink="http://www.w3.org/1999/xlink">
    <!-- Generator: Sketch 56.3 (81716) - https://sketch.com -->
    <title>Group 4</title>
    <desc>Created with Sketch.</desc>
    <g id="Page-1" stroke="none" stroke-width="1" fill="none" fill-rule="evenodd">
        <g id="Desktop-Copy-9" transform="translate(-829.000000, -625.000000)" fill="#4098D7" fill-rule="nonzero">
            <g id="Group-4" transform="translate(829.000000, 625.000000)">
                <g id="noun_Resume_1769675" transform="translate(0.000000, 7.000000)">
                    <g id="Group">
                        <path d="M3.71778378,45.0225366 C12.7468649,52.9861463 25.5257838,51.719122 36.741,47.4449756 C39.1468919,46.5203902 41.8716216,45.3472195 43.7821081,43.1188293 L43.7821081,43.1188293 C45.5795405,41.0198049 46.5081081,37.5396098 44.8084865,34.9497561 C43.8252973,33.4392195 42.0316757,32.3649756 39.621973,31.8437073 C37.7241892,31.4327805 35.8111622,31.374439 34.0137297,30.8772683 C29.9539459,29.7776585 29.9018649,27.4275122 29.2705405,25.7356098 C30.3337568,24.9543415 31.2724865,23.9993171 31.9889189,22.9276098 C34.2093514,19.6021463 34.8406757,15.1377561 33.719027,10.678439 C32.7523514,6.82029268 30.5497027,3.57853659 27.6763514,1.78517073 C22.4288649,-1.52 15.9009459,0.664 13.3591351,5.98068293 C11.5617027,9.77668293 11.1488649,16.6178537 13.3896216,21.3764878 C14.3245405,23.3537561 15.7574054,25.0329756 17.4392432,26.2074146 C15.5122432,31.6407805 10.8808378,30.8290732 6.13891892,32.3053659 C3.03183784,33.246439 0.874918919,35.2059512 0.370621622,37.5446829 C-0.150189189,39.9633171 1.06927027,42.688878 3.71778378,45.0225366 Z M16.6338919,49.2916098 C16.6669189,49.2763902 16.7062973,49.2776585 16.7342432,49.2497561 L16.9857568,48.9986341 L17.2512432,49.2637073 C17.377,49.3892683 17.5777027,49.3854634 17.7009189,49.2637073 C17.8254054,49.1394146 17.8254054,48.9390244 17.7009189,48.8147317 L17.4354324,48.5496585 L18.7323784,47.2534634 L20.5069459,49.0252683 L20.2020811,49.3296585 C20.1385676,49.3930732 20.1093514,49.4755122 20.1106216,49.5579512 C19.0664595,49.5452683 18.142973,49.4958049 16.6338919,49.2916098 Z M36.284973,46.2603902 C30.6106757,48.4240976 25.5397568,49.4958049 20.8778649,49.5503415 L22.8607568,47.5705366 L23.9849459,48.6929756 C24.1081622,48.816 24.3088649,48.8172683 24.4346216,48.6929756 C24.5591081,48.5686829 24.5591081,48.3682927 24.4346216,48.244 L23.3104324,47.121561 L24.7140811,45.7200976 L25.6998108,46.7042927 C25.5905676,46.8285854 25.588027,47.0150244 25.7074324,47.1342439 C25.8154054,47.2433171 25.9907027,47.2712195 26.1380541,47.1418537 L27.2787568,48.2807805 C27.401973,48.4038049 27.6026757,48.4050732 27.7284324,48.2807805 C27.8529189,48.1564878 27.8529189,47.9560976 27.7284324,47.8318049 L26.5928108,46.6979512 L28.6836757,44.6090732 L30.2994595,46.2223415 L30.1533784,46.3681951 C30.0288919,46.4924878 30.0288919,46.692878 30.1533784,46.8171707 C30.2765946,46.9401951 30.4772973,46.9414634 30.6030541,46.8171707 L30.7491351,46.6713171 L31.1467297,47.0682927 C31.2699459,47.1913171 31.4706486,47.1925854 31.5964054,47.0682927 C31.7208919,46.944 31.7208919,46.7436098 31.5964054,46.6193171 L31.1988108,46.2223415 L32.7612432,44.6623415 L34.0886757,45.9877073 C34.2118919,46.1107317 34.4125946,46.112 34.5383514,45.9877073 C34.6628378,45.8634146 34.6628378,45.6630244 34.5383514,45.5387317 L33.2109189,44.2133659 L35.0909189,42.3362927 L36.4412162,43.6844878 L35.3386216,44.7853659 C35.2141351,44.9096585 35.2141351,45.1100488 35.3386216,45.2343415 C35.4618378,45.3573659 35.6625405,45.3586341 35.7882973,45.2343415 L36.8870811,44.1372683 L38.2170541,45.4651707 C37.5654054,45.7556098 36.9137568,46.0194146 36.284973,46.2603902 Z M30.678,42.619122 C30.6843514,42.6127805 30.6818108,42.6039024 30.6868919,42.597561 L32.309027,44.2171707 L30.7465946,45.7771707 L29.1308108,44.1639024 L30.678,42.619122 Z M43.744,35.6422439 C43.7605135,35.6663415 43.7668649,35.6942439 43.7833784,35.7183415 L42.9195946,36.5807805 L42.1510811,35.8134634 L43.0644054,34.901561 C43.0745676,34.8914146 43.0707568,34.8761951 43.0796486,34.8660488 C43.3248108,35.0994146 43.5547297,35.3518049 43.744,35.6422439 Z M41.7598378,38.0646829 L40.8287297,37.1350244 L41.7026757,36.262439 L42.4711892,37.0297561 L41.7966757,37.7044878 C41.6950541,37.8034146 41.6988649,37.9454634 41.7598378,38.0646829 Z M18.9407027,25.6519024 L19.4818378,25.1116098 L20.0852162,25.7140488 C20.2084324,25.8370732 20.4091351,25.8383415 20.5348919,25.7140488 C20.6593784,25.5897561 20.6593784,25.3893659 20.5348919,25.2663415 L19.9315135,24.6639024 L20.1944595,24.4013659 L22.3196216,26.5244878 C22.4453784,26.6500488 22.6460811,26.6462439 22.7692973,26.5244878 C22.8937838,26.4001951 22.8937838,26.1998049 22.7692973,26.0755122 L22.2904054,25.5973659 L23.1770541,24.7120976 L24.5413243,26.0742439 C24.6645405,26.1972683 24.8652432,26.1985366 24.991,26.0742439 C25.1154865,25.9499512 25.1154865,25.749561 24.991,25.6252683 L23.6267297,24.263122 L24.6022973,23.2890732 L26.2892162,24.9746341 L26.0237297,25.2397073 C25.8992432,25.364 25.8992432,25.5643902 26.0237297,25.6874146 C26.1469459,25.810439 26.3476486,25.8117073 26.4734054,25.6874146 L26.9116486,25.2498537 C26.9345135,25.2359024 26.965,25.2397073 26.9853243,25.2194146 C27.0056486,25.199122 27.0018378,25.1699512 27.0158108,25.147122 L28.9199459,23.2446829 L29.5411081,23.864878 C26.6753784,26.6005854 22.607973,27.652 18.9407027,25.6519024 Z M22.9522162,21.6453659 L24.1500811,22.8413659 L23.1745135,23.8154146 L21.9766486,22.6194146 L22.9522162,21.6453659 Z M21.5282432,23.0683902 L22.7261081,24.2643902 L21.8394595,25.1496585 L20.6415946,23.9536585 L21.5282432,23.0683902 Z M26.7350811,24.5269268 L25.0481622,22.8413659 L26.7795405,21.1126829 L28.4677297,22.7982439 L26.7350811,24.5269268 Z M30.9320541,22.2237073 C30.6525946,22.6409756 30.3274054,23.0341463 29.9806216,23.409561 L29.3670811,22.7969756 L30.9650811,21.2001951 C31.0273243,21.2610732 31.1060811,21.2927805 31.1873784,21.2927805 C31.2686757,21.2927805 31.349973,21.2623415 31.4122162,21.2001951 C31.5367027,21.0759024 31.5367027,20.8755122 31.4122162,20.7512195 L29.7672162,19.1087805 L31.2762973,17.6020488 L31.8961892,18.2197073 L30.7402432,19.3738537 C30.6157568,19.4981463 30.6157568,19.6985366 30.7402432,19.8228293 C30.8634595,19.9458537 31.0641622,19.947122 31.1899189,19.8228293 L32.5834054,18.4315122 C32.2404324,19.8076098 31.6878649,21.091122 30.9320541,22.2237073 Z M32.7167838,17.728878 C32.5973784,17.6654634 32.4525676,17.6629268 32.3509459,17.763122 L32.3433243,17.7707317 L31.6878649,17.117561 C31.7297838,17.0046829 31.7285135,16.8803902 31.6370541,16.7903415 C31.5468649,16.7002927 31.4223784,16.6990244 31.3093243,16.7396098 L30.0288919,15.462439 C30.0123784,15.4459512 29.9882432,15.4497561 29.9691892,15.4370732 L31.5405135,13.8681951 L32.3814324,14.7078049 L31.7158108,15.3723902 C31.5913243,15.4966829 31.5913243,15.6970732 31.7158108,15.8200976 C31.8415676,15.9456585 32.0422703,15.9418537 32.1654865,15.8200976 L32.8793784,15.1073171 C32.900973,15.111122 32.9174865,15.1314146 32.9390811,15.1314146 C32.9517838,15.1314146 32.9619459,15.1187317 32.9746486,15.1161951 C32.9682973,16.0141463 32.8793784,16.8854634 32.7167838,17.728878 Z M14.5379459,20.8361951 C12.4534324,16.4098537 12.8764324,9.96439024 14.5061892,6.52478049 C16.7278919,1.87521951 22.4085405,-0.0297560976 27.0018378,2.85814634 C29.6008108,4.48029268 31.5989459,7.4417561 32.4855946,10.9853659 C32.7510811,12.0405854 32.9073243,13.0932683 32.9644865,14.1281951 L32.8323784,14.2600976 L31.2762973,12.706439 C31.1518108,12.5821463 30.9511081,12.5821463 30.8266216,12.706439 C30.7021351,12.8307317 30.7021351,13.031122 30.8266216,13.1554146 L31.0908378,13.4192195 L28.8678649,15.6387317 C28.7433784,15.7630244 28.7433784,15.9634146 28.8678649,16.0877073 C28.9910811,16.2107317 29.1917838,16.212 29.3175405,16.0877073 L29.5563514,15.8505366 C29.5690541,15.869561 29.5652432,15.8936585 29.5817568,15.9101463 L30.8266216,17.1518049 L29.3175405,18.6585366 L28.0726757,17.4156098 C27.9481892,17.2913171 27.7474865,17.2913171 27.623,17.4156098 C27.4985135,17.5399024 27.4985135,17.7402927 27.623,17.8645854 L28.8678649,19.1075122 L28.3368919,19.6376585 C28.2124054,19.7619512 28.2124054,19.9623415 28.3368919,20.0866341 C28.4601081,20.2096585 28.6608108,20.2109268 28.7865676,20.0866341 L29.3175405,19.5552195 L30.5154054,20.7512195 L28.9174054,22.3467317 L27.2292162,20.6611707 L27.4591351,20.4316098 C27.5836216,20.3073171 27.5836216,20.1069268 27.4591351,19.9839024 C27.3346486,19.8596098 27.1339459,19.8596098 27.0107297,19.9839024 L26.7808108,20.2134634 L25.8484324,19.2825366 C25.7239459,19.1582439 25.5232432,19.1582439 25.3987568,19.2825366 C25.2742703,19.4068293 25.2742703,19.6072195 25.3987568,19.7302439 L26.3311351,20.6611707 L24.5997568,22.3898537 L23.3841081,21.1760976 C23.4628649,21.0530732 23.4666757,20.8945366 23.3587027,20.7867317 C23.2342162,20.662439 23.0335135,20.662439 22.9102973,20.7867317 L20.1931892,23.4996098 L19.9721622,23.2789268 C19.8476757,23.1559024 19.646973,23.1546341 19.5224865,23.2789268 C19.398,23.4032195 19.398,23.6036098 19.5224865,23.7266341 L19.7435135,23.9473171 L19.4805676,24.2098537 L18.8149459,23.5452683 C18.6904595,23.4209756 18.4897568,23.4209756 18.3665405,23.5452683 C18.2420541,23.669561 18.2420541,23.8699512 18.3665405,23.9942439 L19.0321622,24.6588293 L18.3703514,25.3196098 C16.779973,24.2783415 15.4195135,22.7005854 14.5379459,20.8361951 Z M1.61294595,37.8122927 C2.01816216,35.9301463 3.84862162,34.3244878 6.51110811,33.5178537 C10.9684865,32.1316098 16.3010811,32.7949268 18.5443784,26.9062439 C21.667973,28.5182439 25.2158378,28.2037073 28.1908108,26.4623415 C28.7319459,28.1605854 29.1625676,30.8785366 33.6758378,32.0999024 C35.5710811,32.6249756 37.5272973,32.6883902 39.3526757,33.0828293 C40.3612703,33.3009756 41.6010541,33.714439 42.6045676,34.464 L41.7014054,35.3657561 L41.2911081,34.9560976 C41.1666216,34.8318049 40.9659189,34.8318049 40.8414324,34.9560976 C40.7169459,35.0803902 40.7169459,35.2807805 40.8414324,35.4050732 L41.2517297,35.8147317 L40.2812432,36.7849756 C40.2164595,36.795122 40.1504054,36.8090732 40.1008649,36.8598049 C40.0513243,36.9092683 40.0348108,36.9752195 40.0259189,37.0411707 L39.9954324,37.0716098 C39.8709459,37.1959024 39.8709459,37.3962927 39.9954324,37.5205854 C40.1313514,37.6562927 40.2317027,37.6169756 40.3511081,37.5586341 L42.6985676,39.902439 C42.8217838,40.0254634 43.0224865,40.0267317 43.1482432,39.902439 C43.2727297,39.7781463 43.2727297,39.5777561 43.1482432,39.4534634 L41.8817838,38.1889756 C42.0011892,38.2498537 42.1066216,38.2891707 42.2438108,38.1521951 L42.9183243,37.4787317 L43.3908649,37.9505366 C43.5140811,38.073561 43.7147838,38.0748293 43.8405405,37.9505366 C43.965027,37.8262439 43.965027,37.6258537 43.8405405,37.501561 L43.368,37.0297561 L44.0844324,36.314439 C45.0485676,38.6125854 44.2978378,42.5354146 38.8166216,45.1874146 C38.809,45.1785366 38.8128108,45.1645854 38.8039189,45.1557073 L37.3342162,43.6882927 L39.0554324,41.9697561 L40.0348108,42.9476098 L39.5711622,43.4105366 C39.4466757,43.5348293 39.4466757,43.7352195 39.5711622,43.8595122 C39.6943784,43.9825366 39.8950811,43.9838049 40.0208378,43.8595122 L43.4645405,40.4211707 C43.589027,40.296878 43.589027,40.0964878 43.4645405,39.9721951 C43.3400541,39.8479024 43.1393514,39.8479024 43.0148649,39.9721951 L40.4844865,42.4986341 L39.5051081,41.5207805 L41.5858108,39.4433171 C41.7102973,39.3190244 41.7102973,39.1186341 41.5858108,38.9943415 C41.4613243,38.8700488 41.2606216,38.8700488 41.1361351,38.9943415 L39.0554324,41.0718049 L37.587,39.6056585 C37.4625135,39.4813659 37.2618108,39.4813659 37.1373243,39.6056585 C37.0128378,39.7299512 37.0128378,39.9303415 37.1373243,40.0546341 L38.6057568,41.5207805 L36.8845405,43.2393171 L35.5342432,41.891122 L36.8527838,40.5746341 C36.9772703,40.4503415 36.9772703,40.2499512 36.8527838,40.1256585 C36.7282973,40.0013659 36.5275946,40.0013659 36.4031081,40.1256585 L35.0845676,41.4421463 L34.5154865,40.8726829 C34.391,40.7483902 34.1902973,40.7483902 34.0658108,40.8726829 C33.9413243,40.9969756 33.9413243,41.1973659 34.0658108,41.3216585 L34.6348919,41.891122 L32.7548919,43.7681951 L31.1264054,42.1422439 C31.0019189,42.0179512 30.8012162,42.0179512 30.6767297,42.1422439 C30.6703784,42.1485854 30.6729189,42.16 30.6665676,42.1676098 C30.5420811,42.0496585 30.3477297,42.0496585 30.2257838,42.1701463 L28.6785946,43.7149268 L28.1628649,43.2 C28.0383784,43.0757073 27.8376757,43.0757073 27.7131892,43.2 C27.5887027,43.3242927 27.5887027,43.5246829 27.7131892,43.6489756 L28.2289189,44.1639024 L26.1380541,46.2527805 L25.1574054,45.2736585 L26.3146216,44.1182439 C26.4391081,43.9939512 26.4391081,43.793561 26.3146216,43.6692683 C26.1901351,43.5449756 25.9894324,43.5449756 25.8649459,43.6692683 L24.7077297,44.8246829 L24.6734324,44.7853659 C24.5489459,44.6610732 24.3482432,44.6610732 24.2237568,44.7853659 C24.0992703,44.9096585 24.0992703,45.1100488 24.2237568,45.2343415 L24.2631351,45.2736585 L22.8594865,46.675122 L21.8140541,45.6313171 C21.6895676,45.5070244 21.4888649,45.5070244 21.3643784,45.6313171 C21.2398919,45.7556098 21.2398919,45.956 21.3643784,46.0802927 L22.4098108,47.1240976 L20.9528108,48.5788293 L19.1782432,46.8070244 L21.3186486,44.6699512 C21.4431351,44.5456585 21.4431351,44.3452683 21.3186486,44.2209756 C21.1941622,44.0966829 20.9934595,44.0966829 20.8702432,44.2209756 L16.9832162,48.1019512 L16.0965676,47.2166829 C15.9733514,47.0936585 15.7726486,47.0923902 15.6468919,47.2166829 C15.5224054,47.3409756 15.5224054,47.5413659 15.6468919,47.6656585 L16.5335405,48.5509268 L16.282027,48.8020488 C16.1600811,48.9238049 16.1600811,49.119122 16.2794865,49.2434146 C11.723027,48.5661463 7.64164865,46.7943415 4.55616216,44.0725854 C3.47262162,43.1162927 1.01337838,40.591122 1.61294595,37.8122927 Z" id="Shape"></path>
                    </g>
                </g>
                <g id="Group-3" transform="translate(33.000000, 0.000000)">
                    <path d="M3.37476323,3.52944946 C5.72237303,0.640827653 10.1828316,0.0943316357 13.1564707,2.43645742 C16.6778854,5.32507923 16.8343927,10.3216142 13.9390073,13.6786612 C11.1218756,16.8795665 6.27014865,16.4892122 3.21825591,13.9909446 C-0.537919772,10.8681103 0.870646108,6.7303547 3.45301689,3.4513786 C3.84428519,2.98295344 2.98349493,2.43645742 2.59222663,2.98295344 C-0.694427092,7.19877986 -1.24220271,11.6488189 3.21825591,15.2400784 C6.66141695,18.1287002 11.5131439,17.1918499 14.6432903,14.3812989 C18.164705,11.1803937 17.3821684,5.79350439 14.6432903,2.51452828 C11.5913975,-1.07673126 5.64411937,-0.686376961 2.67048029,2.82681172 C2.35746565,3.29523688 2.98349493,3.99787462 3.37476323,3.52944946 L3.37476323,3.52944946 Z" id="Path"></path>
                    <path d="M8.01924825,5.55210049 C8.36372681,7.55811367 8.70820538,9.56412685 8.88044466,11.57014 C8.9665643,12.1432867 10,12.1432867 10,11.57014 C9.82776072,9.49248353 9.48328215,7.41482702 9.13880359,5.33717051 C8.88044466,4.76402389 7.84700896,4.97895387 8.01924825,5.55210049 L8.01924825,5.55210049 Z" id="Path"></path>
                    <path d="M5.46601942,8.9596774 C6.63106796,9.05702477 7.7961165,8.9596774 9.03883495,8.86233003 C10.2038835,8.66763528 11.368932,8.18089842 12.5339806,8.27824579 C13.1553398,8.37559316 13.1553398,7.11007732 12.5339806,7.01272995 C11.368932,6.91538258 10.2038835,7.40211944 9.03883495,7.59681418 C7.87378641,7.79150893 6.70873786,7.79150893 5.46601942,7.79150893 C4.84466019,7.69416156 4.84466019,8.9596774 5.46601942,8.9596774 L5.46601942,8.9596774 Z" id="Path"></path>
                </g>
            </g>
        </g>
    </g>
</svg>