<?xml version="1.0" encoding="UTF-8"?>
<svg width="76px" height="78px" viewBox="0 0 76 78" version="1.1" xmlns="http://www.w3.org/2000/svg" xmlns:xlink="http://www.w3.org/1999/xlink">
    <!-- Generator: Sketch 56.3 (81716) - https://sketch.com -->
    <title>noun_Pin location_1769953</title>
    <desc>Created with Sketch.</desc>
    <g id="Page-1" stroke="none" stroke-width="1" fill="none" fill-rule="evenodd">
        <g id="Desktop-Copy-9" transform="translate(-359.000000, -863.000000)" fill="#4098D7" fill-rule="nonzero">
            <g id="noun_Pin-location_1769953" transform="translate(358.000000, 862.000000)">
                <g id="Group">
                    <path d="M9.60086207,75.6921212 C11.6465517,78.56 13.1901724,80.1587879 15.3722414,77.3212121 C16.7432759,75.5333333 22.3963793,69.7612121 25.4691379,61.0121212 C33.1522414,39.1309091 9.00465517,33.9709091 2.46206897,48.4327273 C-0.616724138,55.2363636 2.09758621,62.8775758 3.99,66.8254545 C6.29517241,71.6363636 8.715,74.4484848 9.60086207,75.6921212 Z M24.3298276,60.6084848 C21.3475862,69.1042424 15.8368966,74.7309091 14.4163793,76.5806061 C13.7368966,77.4642424 13.4653448,77.7345455 12.8462069,77.4957576 C11.6381034,77.0363636 6.72844828,69.7454545 5.07741379,66.3006061 C-9.18206897,36.5418182 34.2577586,32.3466667 24.3298276,60.6084848 Z" id="Shape"></path>
                    <path d="M10.4444828,61.2484848 C13.2806897,63.3163636 17.6617241,61.4836364 19.6060345,59.4193939 C24.9887931,53.710303 20.1805172,44.4884848 12.7327586,45.590303 C9.36672414,46.089697 6.545,49.0012121 6.16603448,52.3636364 C5.80637931,55.5527273 8.08741379,59.5321212 10.4444828,61.2484848 Z M16.5827586,47.8642424 L15.7644828,47.0424242 C16.602069,47.3042424 17.395,47.7236364 18.0901724,48.2690909 C17.955,48.36 17.6387931,48.6921212 17.522931,48.8084848 L17.01,48.2933333 C17.4975862,47.8024242 17.0293103,47.4157576 16.5827586,47.8642424 Z M15.387931,47.5212121 L16.1567241,48.2933333 L15.3022414,49.1515152 L14.5334483,48.3793939 L15.387931,47.5212121 Z M15.1598276,46.8933333 L14.1062069,47.9515152 L12.9741379,46.8121212 C12.9789655,46.8036364 12.9813793,46.7939394 12.985,46.7842424 C13.6886207,46.689697 14.2787931,46.7018182 15.1598276,46.8933333 Z M11.9591379,47.0193939 L10.7751724,48.2084848 L10.3648276,47.7963636 C10.862069,47.470303 11.3918966,47.1987879 11.9591379,47.0193939 Z M9.86275862,48.1478788 L10.3491379,48.6363636 C10.0667241,48.92 9.64672414,49.2169697 9.92189655,49.4933333 C10.1982759,49.7709091 10.4927586,49.3490909 10.7751724,49.0642424 L11.7153448,50.0084848 L9.66482759,52.0678788 C9.54534483,51.9478788 8.13568966,50.5175758 7.99810345,50.4193939 C8.44103448,49.5393939 9.08793103,48.7636364 9.86275862,48.1478788 Z M7.75672414,51.0072727 L9.2387931,52.4957576 L8.38431034,53.3539394 C8.10431034,53.6351515 8.52793103,54.0666667 8.81155172,53.7830303 L9.66603448,52.9248485 C9.80724138,53.0666667 11.3894828,54.7321212 11.5898276,54.7321212 C11.8565517,54.7321212 11.992931,54.4060606 11.8034483,54.2145455 L10.0932759,52.4969697 L12.1437931,50.4375758 C12.2825862,50.5769697 13.5051724,51.8775758 13.7031034,51.8775758 C13.9698276,51.8775758 14.1062069,51.5515152 13.9167241,51.36 L12.5710345,50.0084848 C12.8148276,49.7636364 13.0887931,49.5551515 12.8425862,49.3078788 C12.5963793,49.0606061 12.3887931,49.3357576 12.145,49.5806061 L11.2048276,48.6363636 L12.5722414,47.2630303 L13.6825862,48.3781818 C13.3941379,48.6678788 13.8322414,49.0848485 14.1098276,48.8072727 L14.8786207,49.5793939 L14.2812069,50.1793939 C14.0905172,50.3709091 14.2281034,50.6969697 14.4948276,50.6969697 C14.6891379,50.6969697 15.1682759,50.1466667 15.3058621,50.0072727 C15.5448276,50.2472727 15.7512069,50.52 15.9974138,50.2727273 C16.2436207,50.0254545 15.972069,49.8193939 15.7331034,49.5781818 L16.5875862,48.72 L17.1005172,49.2351515 L16.8446552,49.4921212 C16.6539655,49.6836364 16.7915517,50.009697 17.0582759,50.009697 C17.2344828,50.009697 17.3901724,49.8024242 17.5277586,49.6630303 C17.8355172,49.9721212 18.1963793,50.4933333 18.4884483,50.2 C18.7805172,49.9066667 18.2615517,49.5430303 17.9537931,49.2351515 C18.072069,49.1163636 18.432931,48.7793939 18.5065517,48.6290909 C21.5708621,51.4412121 21.1074138,56.0678788 18.7334483,58.5854545 C17.0534483,60.3684848 13.3591379,61.870303 11.1577586,60.2666667 C10.3756897,59.6957576 9.59241379,58.8036364 8.93948276,57.7745455 L10.0546552,56.6545455 L10.9381034,57.5418182 C11.2193103,57.8242424 11.6465517,57.3963636 11.3653448,57.1127273 L10.4758621,56.2266667 L11.5017241,55.1963636 C11.7817241,54.9151515 11.3581034,54.4836364 11.0744828,54.7672727 L10.0486207,55.7975758 L7.36206897,53.0993939 C7.35482759,52.4957576 7.33431034,52.1006061 7.75672414,51.0072727 Z M7.44534483,54.04 L9.62258621,56.2266667 L8.62086207,57.2327273 C8.04637931,56.2121212 7.62275862,55.1054545 7.44534483,54.04 Z" id="Shape"></path>
                    <path d="M51.4946552,9.40484848 C45.6725862,22.2690909 59.92,39.7612121 62.2589655,39.7612121 C63.4972414,39.7612121 64.0463793,38.6581818 64.842931,37.7466667 C93.4608621,4.95636364 59.8427586,-9.04727273 51.4946552,9.40484848 Z M73.3624138,21.5818182 L73.3624138,21.5818182 C70.385,30.0606061 64.9177586,35.6412121 63.4489655,37.5527273 C61.8691379,39.609697 61.5336207,38.3406061 59.0317241,35.1624242 C44.8567241,17.1939394 52.5917241,2.42424242 63.7362069,2.42424242 C69.4508621,2.42424242 78.3601724,7.34787879 73.3624138,21.5818182 Z" id="Shape"></path>
                    <path d="M55.1986207,13.3369697 C54.787069,16.9951515 58.1096552,23.129697 62.4460345,23.129697 C68.5046552,23.129697 72.8156897,16.5757576 70.1001724,11.0084848 C66.6158621,3.86424242 56.0591379,5.69939394 55.1986207,13.3369697 Z M63.8472414,7.78787879 C63.9317241,7.93090909 64.1513793,8.13212121 64.2708621,8.25212121 C64.0946552,8.29575758 63.2256897,9.21575758 63.0965517,9.34545455 L61.7472414,7.99030303 C61.7737931,7.92848485 61.7822414,7.87030303 61.7653448,7.80606061 C62.4665517,7.67878788 63.0156897,7.65333333 63.8472414,7.78787879 Z M60.9132759,8.00969697 L60.922931,8.01818182 L59.6496552,9.2969697 L59.2296552,8.87515152 C59.7498276,8.51272727 60.3110345,8.20969697 60.9132759,8.00969697 Z M56.9401724,16.7272727 L57.8537931,17.6448485 L57.5231034,17.9769697 C57.3046552,17.569697 57.1043103,17.1527273 56.9401724,16.7272727 Z M60.1855172,21.24 C59.3467241,20.6290909 58.5139655,19.6436364 57.8356897,18.52 L58.2798276,18.0739394 L59.0824138,18.88 C59.3624138,19.1612121 59.792069,18.7357576 59.5096552,18.4509091 L58.707069,17.6448485 L60.3363793,16.0084848 C60.6163793,15.7272727 60.1927586,15.2957576 59.9091379,15.5793939 L58.2798276,17.2157576 L56.56,15.4884848 C56.2437931,14.129697 56.3367241,13.2424242 56.722931,12.1466667 L58.042069,13.4715152 L56.6975862,14.8218182 C56.5068966,15.0133333 56.6444828,15.3393939 56.9112069,15.3393939 C57.107931,15.3393939 58.3293103,14.04 58.4693103,13.8993939 C58.6213793,14.0521212 59.4565517,14.9612121 59.6508621,14.9612121 C59.9175862,14.9612121 60.0539655,14.6351515 59.8644828,14.4436364 L58.8965517,13.4715152 L60.5367241,11.8242424 C60.8167241,11.5430303 60.3931034,11.1115152 60.1094828,11.3951515 L58.4693103,13.0424242 L56.9655172,11.5321212 C57.3818966,10.6545455 58.0022414,9.87878788 58.7493103,9.24969697 L59.2236207,9.72606061 C58.9158621,10.0351515 58.3872414,10.4036364 58.6817241,10.6993939 C58.8,10.8181818 58.9906897,10.8181818 59.1089655,10.6993939 L59.6508621,10.1551515 C59.792069,10.2969697 61.202931,11.7878788 61.4008621,11.7878788 C61.6675862,11.7878788 61.8039655,11.4618182 61.6144828,11.270303 L60.0768966,9.72606061 L61.3501724,8.44727273 L62.6705172,9.77333333 C62.3917241,10.0533333 62.0006897,10.3333333 62.2698276,10.6036364 C62.3881034,10.7224242 62.5787931,10.7224242 62.697069,10.6036364 L63.0977586,10.2012121 C63.2413793,10.3454545 63.5768966,10.7430303 63.7627586,10.7430303 C64.0294828,10.7430303 64.1658621,10.4169697 63.9763793,10.2254545 L63.525,9.77212121 C63.6541379,9.64242424 64.5701724,8.76969697 64.6136207,8.59272727 L65.5043103,9.48727273 L65.1965517,9.79636364 C65.0058621,9.98787879 65.1434483,10.3139394 65.4101724,10.3139394 C65.5887931,10.3139394 65.7903448,10.0569697 65.9291379,9.91757576 C66.1717241,10.1612121 66.3865517,10.4509091 66.6363793,10.2 C66.8862069,9.94909091 66.5965517,9.73212121 66.3551724,9.48848485 C66.7787931,9.0630303 66.3793103,8.60727273 65.927931,9.05939394 L64.9382759,8.06545455 C66.6713793,8.64727273 68.2125862,9.89333333 69.0151724,11.5393939 C72.3015517,18.2763636 63.9703448,23.9963636 60.1855172,21.24 Z" id="Shape"></path>
                    <path d="M23.6781034,77.4363636 C30.3944828,78.8109091 37.4777586,79.8036364 42.0084483,74.6145455 C44.3836207,71.8945455 44.8096552,67.8157576 42.9981034,65.1248485 C41.1394828,62.3648485 37.4572414,61.3345455 36.2817241,58.609697 C32.8034483,50.5527273 51.1386207,44.5975758 59.9984483,43.6351515 L59.8693103,42.430303 C49.9027586,43.5127273 31.2127586,49.9090909 35.175,59.0921212 C36.5255172,62.2230303 40.2994828,63.28 42,65.8048485 C43.5134483,68.0533333 43.1284483,71.4969697 41.102069,73.8157576 C36.6293103,78.9381818 28.5937931,77.2036364 23.9194828,76.249697 L23.6781034,77.4363636 Z" id="Path"></path>
                </g>
            </g>
        </g>
    </g>
</svg>