<?xml version="1.0" encoding="UTF-8"?>
<svg width="58px" height="80px" viewBox="0 0 58 80" version="1.1" xmlns="http://www.w3.org/2000/svg" xmlns:xlink="http://www.w3.org/1999/xlink">
    <!-- Generator: Sketch 56.3 (81716) - https://sketch.com -->
    <title>noun_Electricity_457662</title>
    <desc>Created with Sketch.</desc>
    <g id="Page-1" stroke="none" stroke-width="1" fill="none" fill-rule="evenodd">
        <g id="Desktop-Copy-9" transform="translate(-492.000000, -812.000000)">
            <g id="noun_Electricity_457662" transform="translate(492.000000, 812.000000)">
                <path d="M57.759732,46.2812801 C56.3791946,44.5715575 54.7950048,43.0572802 53.0453057,41.7399243 C52.9555456,41.4535758 52.7291906,41.1999648 52.4417908,41.1196106 C52.2956446,41.0787501 52.1501307,41.0357946 52.0041152,40.9944522 C51.8481293,40.8878532 51.6940125,40.77891 51.5356561,40.6753011 C51.2420995,40.4832356 50.9553937,40.4980837 50.7286333,40.6275991 C44.3399205,38.7508906 38.1026792,36.4069938 32.0651835,33.6144134 C32.1198793,33.5008396 32.175293,33.3875906 32.2285733,33.2733437 C32.3633542,32.9882458 32.4895907,32.6992147 32.6159302,32.4103578 C32.8984651,31.7643768 33.1585927,31.1090529 33.4079941,30.4498129 C33.8920683,29.1702249 34.3023204,27.8635207 34.691536,26.5528183 C35.5055676,23.8115896 36.2184945,21.0390619 36.9683686,18.2800051 C38.5232383,12.5590428 40.0780806,6.83808994 41.6329435,1.11713708 C41.8161604,0.443028391 41.0013112,-0.324071251 40.3598116,0.143630402 C39.4899025,0.777867902 38.6199727,1.41210486 37.750043,2.04635302 C37.1257698,2.36569212 36.5287484,2.72973204 35.9641458,3.14128335 C35.8434992,3.17793468 35.7243298,3.24457699 35.6131176,3.3498159 C35.4517996,3.50248253 35.2889218,3.65352862 35.1274802,3.80605855 C34.8476319,4.04748597 34.5768332,4.30142491 34.315967,4.56843335 C23.2506578,14.9940037 11.8971862,25.1147774 0.264646139,34.9105924 C-0.273955438,35.3641423 0.0885410376,36.149846 0.647072915,36.3513912 C8.63549081,39.2339147 16.5391647,42.3446791 24.3462691,45.6825364 C16.9657707,55.9954388 9.58531678,66.3083413 2.2048166,76.6212301 C2.07646718,76.8005764 2.03072136,76.9745303 2.04364983,77.1329217 C1.61928568,77.6064491 1.19494214,78.0799901 0.770578076,78.5535243 C0.0910371548,79.3118078 0.933545216,80.3105797 1.82082497,79.9074144 C6.48485015,77.7881261 11.1499989,75.6559612 15.5878993,73.0911058 C17.8589735,71.7785649 20.0419026,70.3288949 22.133845,68.7495318 C24.2804659,67.1288878 26.3690002,65.4529042 28.6833466,64.0684977 C30.9975247,62.6841936 33.4406431,61.5152883 35.8196694,60.2473841 C38.2865076,58.9326698 40.7276402,57.570585 43.1545492,56.1844903 C48.0098994,53.4114739 52.79688,50.5219415 57.584321,47.6351805 C58.1002197,47.3241009 58.1086027,46.7133522 57.759732,46.2812801 Z M34.669005,20.1320596 C33.8525032,23.136343 33.0795244,26.1581144 32.0584977,29.1019954 C31.8174553,29.7969701 31.5533046,30.4836134 31.276569,31.1652129 C31.0482831,31.7274838 30.7098672,32.2882 30.4640835,32.8607707 C29.7948066,32.5404543 29.1271789,32.2164436 28.4630624,31.8849697 C31.4707422,24.5122985 34.4784014,17.139648 37.4860674,9.76697507 C36.5470535,13.2220078 35.6080395,16.6770286 34.669005,20.1320596 Z M26.4173502,45.7501166 C26.668126,45.3997006 26.5142153,44.7461127 26.1064196,44.570686 C18.3485311,41.2334678 10.4978178,38.1149393 2.56257365,35.2200827 C13.6841004,25.8219176 24.5511926,16.1284369 35.1524024,6.15318337 C35.215543,6.11336504 35.2772611,6.06389637 35.3360385,6.00096949 C35.4263688,5.90424304 35.5209732,5.81300906 35.6139215,5.71962896 C35.8268637,5.51893566 36.0409947,5.31946319 36.2537238,5.11854943 C36.8051953,4.63941941 37.3957784,4.2141776 38.0251982,3.84907497 C38.0310388,3.84843248 38.0369206,3.84758073 38.0428025,3.84678112 C34.2048405,13.2547855 30.3668373,22.6627677 26.5288581,32.0707644 C26.3909851,32.4087791 26.6126469,32.8851427 26.9271542,33.0442689 C28.0918292,33.6335844 29.265643,34.2042654 30.4462698,34.7601904 C30.6920535,35.1429305 31.1014983,35.378915 31.592619,35.2940296 C37.668137,38.0870405 43.9438234,40.4390295 50.3661164,42.3198866 C36.4937527,53.2591241 21.1768899,62.2162706 7.05108464,72.8109767 L26.4173502,45.7501166 Z M42.5708167,54.5291881 C40.1463814,55.9197799 37.7037921,57.2789942 35.2406163,58.6005158 C32.8584121,59.8785967 30.4238622,61.0642741 28.0834906,62.4181233 C25.7518594,63.7669217 23.6498848,65.4345466 21.5162575,67.0652852 C19.4295613,68.6601833 17.2473126,70.1113433 14.9832195,71.4448117 C11.7315117,73.3599374 8.33714837,75.0179803 4.91168197,76.6052372 C20.1018033,64.7308919 36.9622324,55.1517845 52.0680391,43.1608344 C53.44108,44.2017723 54.6988751,45.3762786 55.8357076,46.6727138 C51.4345789,49.3257183 47.0291558,51.9720147 42.5708167,54.5291881 Z" id="Shape" fill="#4098D7" fill-rule="nonzero"></path>
                <path d="M15.3193939,72.3193939 L12.6387879,69.5078788" id="Line" stroke="#4098D7" stroke-linecap="square"></path>
                <path d="M14.3193939,73.3193939 L11.6387879,70.5078788" id="Line-Copy-8" stroke="#4098D7" stroke-linecap="square"></path>
                <path d="M17.3193939,71.3193939 L14.6387879,68.5078788" id="Line-Copy" stroke="#4098D7" stroke-linecap="square"></path>
                <path d="M18.3193939,70.3193939 L15.6387879,67.5078788" id="Line-Copy-2" stroke="#4098D7" stroke-linecap="square"></path>
                <path d="M20.3193939,69.3193939 L17.6387879,66.5078788" id="Line-Copy-3" stroke="#4098D7" stroke-linecap="square"></path>
                <path d="M22.3193939,68.3193939 L19.6387879,65.5078788" id="Line-Copy-4" stroke="#4098D7" stroke-linecap="square"></path>
                <path d="M22.3619318,66.3619318 L20.3553977,64.1119318" id="Line-Copy-5" stroke="#4098D7" stroke-linecap="square"></path>
                <path d="M24.3193939,66.3193939 L21.6387879,63.5078788" id="Line-Copy-6" stroke="#4098D7" stroke-linecap="square"></path>
                <path d="M26.3193939,65.3193939 L23.6387879,62.5078788" id="Line-Copy-7" stroke="#4098D7" stroke-linecap="square"></path>
                <path d="M36.3193939,58.3193939 L33.6387879,55.5078788" id="Line-Copy-24" stroke="#4098D7" stroke-linecap="square"></path>
                <path d="M35.3193939,58.3193939 L32.6387879,55.5078788" id="Line-Copy-23" stroke="#4098D7" stroke-linecap="square"></path>
                <path d="M38.3193939,57.3193939 L35.6387879,54.5078788" id="Line-Copy-22" stroke="#4098D7" stroke-linecap="square"></path>
                <path d="M39.3193939,56.3193939 L36.6387879,53.5078788" id="Line-Copy-21" stroke="#4098D7" stroke-linecap="square"></path>
                <path d="M41.3193939,55.3193939 L38.6387879,52.5078788" id="Line-Copy-20" stroke="#4098D7" stroke-linecap="square"></path>
                <path d="M43.3193939,54.3193939 L40.6387879,51.5078788" id="Line-Copy-19" stroke="#4098D7" stroke-linecap="square"></path>
                <path d="M44.8387879,53.7078788 L41.6387879,50.5078788" id="Line-Copy-18" stroke="#4098D7" stroke-linecap="square"></path>
                <path d="M46.3193939,52.3193939 L43.6387879,49.5078788" id="Line-Copy-17" stroke="#4098D7" stroke-linecap="square"></path>
                <path d="M47.3193939,51.3193939 L44.6387879,48.5078788" id="Line-Copy-16" stroke="#4098D7" stroke-linecap="square"></path>
                <path d="M26.8488636,64.3193939 L24.5988636,61.5078788" id="Line-Copy-9" stroke="#4098D7" stroke-linecap="square"></path>
                <path d="M28.3619318,62.3619318 L26.3553977,60.1119318" id="Line-Copy-10" stroke="#4098D7" stroke-linecap="square"></path>
                <path d="M30.3193939,62.3193939 L27.6387879,59.5078788" id="Line-Copy-11" stroke="#4098D7" stroke-linecap="square"></path>
                <path d="M31.3193939,61.3193939 L28.6387879,58.5078788" id="Line-Copy-12" stroke="#4098D7" stroke-linecap="square"></path>
                <path d="M33.3193939,60.3193939 L30.6387879,57.5078788" id="Line-Copy-13" stroke="#4098D7" stroke-linecap="square"></path>
                <path d="M11.4934659,74.4321023 L9.59886364,72.4761364" id="Line-Copy-14" stroke="#4098D7" stroke-linecap="square"></path>
                <path d="M49.459697,50.9021212 L46.6387879,47.5078788" id="Line-Copy-15" stroke="#4098D7" stroke-linecap="square"></path>
                <path d="M51.459697,48.9021212 L48.6387879,45.5078788" id="Line-Copy-25" stroke="#4098D7" stroke-linecap="square"></path>
                <path d="M53.459697,47.9021212 L50.6387879,44.5078788" id="Line-Copy-26" stroke="#4098D7" stroke-linecap="square"></path>
                <path d="M31.459697,31.9021212 L28.6387879,28.5078788" id="Line-Copy-27" stroke="#4098D7" stroke-linecap="square"></path>
                <path d="M32.459697,29.9021212 L29.6387879,26.5078788" id="Line-Copy-28" stroke="#4098D7" stroke-linecap="square"></path>
                <path d="M33.459697,28.9021212 L30.6387879,25.5078788" id="Line-Copy-29" stroke="#4098D7" stroke-linecap="square"></path>
                <path d="M33.9146307,25.9089489 L31.5988636,23.4761364" id="Line-Copy-30" stroke="#4098D7" stroke-linecap="square"></path>
                <path d="M33.9146307,23.9089489 L31.5988636,21.4761364" id="Line-Copy-31" stroke="#4098D7" stroke-linecap="square"></path>
                <path d="M34.9146307,21.9089489 L32.5988636,19.4761364" id="Line-Copy-32" stroke="#4098D7" stroke-linecap="square"></path>
                <path d="M35.9146307,19.9089489 L33.5988636,17.4761364" id="Line-Copy-33" stroke="#4098D7" stroke-linecap="square"></path>
                <path d="M35.9707702,17.91875 L34.5323232,16.4232323" id="Line-Copy-34" stroke="#4098D7" stroke-linecap="square"></path>
                <path d="M36.9707702,15.91875 L35.5323232,14.4232323" id="Line-Copy-35" stroke="#4098D7" stroke-linecap="square"></path>
                <path d="M36.9707702,13.91875 L35.5323232,12.4232323" id="Line-Copy-36" stroke="#4098D7" stroke-linecap="square"></path>
            </g>
        </g>
    </g>
</svg>