<?xml version="1.0" standalone="no"?>
<!DOCTYPE svg PUBLIC "-//W3C//DTD SVG 20010904//EN"
 "http://www.w3.org/TR/2001/REC-SVG-20010904/DTD/svg10.dtd">
<svg version="1.0" xmlns="http://www.w3.org/2000/svg"
 width="300.000000pt" height="300.000000pt" viewBox="0 0 300.000000 300.000000"
 preserveAspectRatio="xMidYMid meet">
<metadata>
Created by potrace 1.11, written by Peter Selinger 2001-2013
</metadata>
<g transform="translate(0.000000,300.000000) scale(0.100000,-0.100000)"
fill="#000000" stroke="none">
<path d="M1390 2725 l0 -75 -75 0 -74 0 -3 -77 -3 -78 -71 -3 -72 -3 -4 -382
c-3 -210 -3 -388 0 -394 3 -9 28 -13 78 -13 l74 0 0 -380 0 -380 478 2 477 3
3 73 3 72 -251 0 -250 0 0 80 0 80 250 0 250 0 0 75 0 75 -250 0 -250 0 0 -75
0 -76 -77 3 -78 3 -3 73 -3 72 -74 0 -75 0 0 150 0 150 75 0 75 0 0 -75 0 -75
80 0 80 0 0 75 0 75 75 0 75 0 0 80 0 80 -75 0 -75 0 0 75 0 75 -80 0 -80 0 0
-75 0 -75 -75 0 -75 0 0 -75 0 -75 -75 0 -75 0 0 315 0 315 555 0 555 0 0 150
0 149 -72 3 -73 3 -3 78 -3 77 -404 0 -405 0 0 -75z m305 -940 l0 -70 -72 -3
-73 -3 0 76 0 76 73 -3 72 -3 0 -70z"/>
<path d="M2200 1935 l0 -75 -90 0 -91 0 3 -77 3 -78 88 -3 87 -3 0 -74 0 -75
75 0 75 0 0 75 0 75 -75 0 -75 0 0 80 0 80 75 0 75 0 0 -75 0 -75 75 0 75 0 0
75 0 75 -75 0 -75 0 0 75 0 75 -75 0 -75 0 0 -75z"/>
<path d="M628 943 l-3 -148 -87 -3 -88 -3 -2 -242 -3 -242 -62 -3 -63 -3 0
-149 0 -150 1170 0 1170 0 0 150 0 149 -77 3 -78 3 -3 153 -3 152 -239 0 -240
0 0 90 0 90 -160 0 -160 0 0 -165 0 -165 -305 0 -305 0 0 315 0 315 -230 0
-229 0 -3 -147z"/>
</g>
</svg>
